# Blender 4.3.2
# www.blender.org
o queen
v 20.000000 -1.732887 0.000000
v 19.802624 4.624292 -0.736618
v 19.482363 -1.732887 -1.931852
v 19.748816 3.264308 -0.937434
v 20.517637 -1.732887 -1.931852
v 20.251184 3.264308 -0.937434
v 21.414213 -1.732887 -1.414214
v 20.686249 3.264308 -0.686249
v 21.931852 -1.732887 -0.517638
v 20.937433 3.264308 -0.251185
v 21.931852 -1.732887 0.517638
v 20.937433 3.264308 0.251185
v 21.414213 -1.732887 1.414213
v 20.686249 3.264308 0.686249
v 20.517637 -1.732887 1.931852
v 20.251184 3.264308 0.937434
v 19.482363 -1.732887 1.931852
v 19.748816 3.264308 0.937434
v 18.585787 -1.732887 1.414214
v 19.313751 3.264308 0.686249
v 18.068148 -1.732887 0.517638
v 19.062567 3.264308 0.251185
v 18.068148 -1.732887 -0.517638
v 19.062567 3.264308 -0.251185
v 18.585787 -1.732887 -1.414213
v 19.313751 3.264308 -0.686249
v 19.482363 -0.801337 -1.931852
v 20.517637 -0.801337 -1.931852
v 21.414213 -0.801337 -1.414214
v 21.931852 -0.801337 -0.517638
v 21.931852 -0.801337 0.517638
v 21.414213 -0.801337 1.414213
v 20.517637 -0.801337 1.931852
v 19.482363 -0.801337 1.931852
v 18.585787 -0.801337 1.414214
v 18.068148 -0.801337 0.517638
v 18.068148 -0.801337 -0.517638
v 18.585787 -0.801337 -1.414213
v 19.638512 0.080678 -1.349090
v 20.361488 0.080678 -1.349090
v 20.987602 0.080678 -0.987602
v 21.349091 0.080678 -0.361488
v 21.349091 0.080678 0.361488
v 20.987602 0.080678 0.987602
v 20.361488 0.080678 1.349090
v 19.638512 0.080678 1.349090
v 19.012398 0.080678 0.987602
v 18.650909 0.080678 0.361488
v 18.650909 0.080678 -0.361488
v 19.012398 0.080678 -0.987602
v 19.570271 4.286995 -1.603774
v 20.429729 4.486995 -1.603774
v 21.174044 4.286995 -1.174044
v 21.603775 4.486995 -0.429730
v 21.603775 4.286995 0.429730
v 21.174044 4.486995 1.174044
v 20.429729 4.286995 1.603774
v 19.570271 4.486995 1.603774
v 18.825956 4.286995 1.174044
v 18.396225 4.486995 0.429730
v 18.396225 4.286995 -0.429730
v 18.825956 4.486995 -1.174044
v 20.197376 4.624292 -0.736618
v 20.539242 4.624292 -0.539242
v 20.736618 4.624292 -0.197376
v 20.736618 4.624292 0.197376
v 20.539242 4.624292 0.539242
v 20.197376 4.624292 0.736618
v 19.802624 4.624292 0.736618
v 19.460758 4.624292 0.539242
v 19.263382 4.624292 0.197376
v 19.263382 4.624292 -0.197376
v 19.460758 4.624292 -0.539242
v 19.700867 5.157282 -1.116384
v 20.299135 5.157282 -1.116385
v 20.817251 5.157282 -0.817250
v 21.116385 5.157282 -0.299134
v 21.116385 5.157282 0.299134
v 20.817249 5.157282 0.817250
v 20.299135 5.157282 1.116384
v 19.700867 5.157282 1.116384
v 19.182751 5.157282 0.817250
v 18.883615 5.157282 0.299134
v 18.883615 5.157282 -0.299134
v 19.182751 5.157282 -0.817250
v 21.597963 4.142226 -0.428173
v 21.169790 4.142226 1.169791
v 21.597965 3.942226 0.428173
v 19.571827 4.142226 1.597964
v 20.428173 3.942226 1.597964
v 18.402037 4.142226 0.428173
v 18.830210 3.942226 1.169791
v 18.402035 3.942226 -0.428173
v 19.571827 3.942226 -1.597964
v 18.830210 4.142226 -1.169791
v 21.169790 3.942226 -1.169791
v 20.428173 4.142226 -1.597964
v 20.182522 6.595105 -0.681184
v 19.817476 6.595105 -0.681184
v 20.498661 6.595105 -0.498662
v 20.681185 6.595105 -0.182523
v 20.681185 6.595105 0.182523
v 20.498661 6.595105 0.498662
v 20.182524 6.595105 0.681184
v 19.817476 6.595105 0.681184
v 19.501339 6.595105 0.498662
v 19.318815 6.595105 0.182523
v 19.318815 6.595105 -0.182523
v 19.501339 6.595105 -0.498662
v 20.000000 6.832994 -0.000000
v 20.366497 5.967617 1.367784
v 18.632215 5.967617 0.366497
v 21.001287 5.967617 -1.001287
v 21.001287 5.967617 1.001287
v 18.998713 5.967617 1.001287
v 19.633503 5.967617 1.367784
v 20.366497 5.967617 -1.367784
v 19.633503 5.967617 -1.367784
v 18.998713 5.967617 -1.001287
v 18.632215 5.967617 -0.366497
v 21.367785 5.967617 0.366497
v 21.367785 5.967617 -0.366497
v 19.633503 7.359151 1.367784
v 19.654640 7.624928 1.288899
v 19.633503 7.359151 -1.367784
v 19.654640 7.624928 -1.288899
v 18.632215 7.359151 -0.366497
v 18.711102 7.624928 -0.345359
v 21.367785 7.359151 -0.366497
v 21.288898 7.624928 -0.345359
v 20.345360 7.624928 -1.288899
v 20.943539 7.624928 -0.943539
v 20.943539 7.624928 0.943540
v 21.288898 7.624928 0.345359
v 20.345360 7.624928 1.288899
v 18.711102 7.624928 0.345359
v 19.056461 7.624928 0.943539
v 19.056461 7.624928 -0.943539
v 20.366497 7.359151 1.367784
v 18.632215 7.359151 0.366497
v 21.001287 7.359151 -1.001287
v 21.001287 7.359151 1.001287
v 18.998713 7.359151 1.001287
v 20.366497 7.359151 -1.367784
v 18.998713 7.359151 -1.001287
v 21.367785 7.359151 0.366497
vn -0.0000 -1.0000 -0.0000
vn 0.9999 -0.0168 -0.0039
vn -0.0000 0.1282 -0.9917
vn 0.5033 -0.0168 0.8639
vn 0.4959 0.1282 -0.8589
vn -0.4965 -0.0168 0.8679
vn 0.8589 0.1282 -0.4959
vn -0.9999 -0.0168 0.0039
vn 0.9917 0.1282 -0.0000
vn 0.8679 -0.0168 -0.4965
vn 0.8589 0.1282 0.4959
vn 0.8639 -0.0168 0.5033
vn 0.4959 0.1282 0.8589
vn -0.0039 -0.0168 0.9999
vn -0.0000 0.1282 0.9917
vn -0.8679 -0.0168 0.4965
vn -0.4959 0.1282 0.8589
vn 0.0039 -0.0168 -0.9999
vn -0.8589 0.1282 0.4959
vn -0.8639 -0.0168 -0.5033
vn -0.9917 0.1282 -0.0000
vn -0.5033 -0.0168 -0.8639
vn -0.8589 0.1282 -0.4959
vn 0.4965 -0.0168 -0.8679
vn -0.4959 0.1282 -0.8589
vn -0.5000 -0.0000 -0.8660
vn -0.8660 -0.0000 -0.5000
vn -1.0000 -0.0000 -0.0000
vn -0.8660 -0.0000 0.5000
vn -0.5000 -0.0000 0.8660
vn -0.0000 -0.0000 1.0000
vn 0.5000 -0.0000 0.8660
vn 0.8660 -0.0000 0.5000
vn 1.0000 -0.0000 -0.0000
vn 0.8660 -0.0000 -0.5000
vn 0.5000 -0.0000 -0.8660
vn -0.0000 -0.0000 -1.0000
vn -0.4172 0.5513 -0.7226
vn -0.7226 0.5513 -0.4172
vn -0.8343 0.5513 -0.0000
vn -0.7226 0.5513 0.4172
vn -0.4172 0.5513 0.7226
vn -0.0000 0.5513 0.8343
vn 0.4172 0.5513 0.7226
vn 0.7226 0.5513 0.4172
vn 0.8343 0.5513 -0.0000
vn 0.7226 0.5513 -0.4172
vn 0.4172 0.5513 -0.7226
vn -0.0000 0.5513 -0.8343
vn 0.2609 0.9533 0.1520
vn -0.1499 0.9533 0.2621
vn 0.2621 0.9533 -0.1499
vn 0.1520 0.9533 0.2609
vn 0.3019 0.9533 -0.0012
vn -0.2609 0.9533 -0.1520
vn 0.1499 0.9533 -0.2621
vn 0.0012 0.9533 -0.3019
vn -0.2621 0.9533 0.1499
vn -0.1520 0.9533 -0.2609
vn -0.0012 0.9533 0.3019
vn -0.3019 0.9533 0.0012
vn -0.0000 -0.5803 -0.8144
vn -0.7053 -0.5803 -0.4072
vn 0.4072 -0.5803 0.7053
vn -0.4072 -0.5803 0.7053
vn 0.7053 -0.5803 -0.4072
vn -0.8144 -0.5803 -0.0000
vn 0.7053 -0.5803 0.4072
vn -0.0000 -0.5803 0.8144
vn 0.4072 -0.5803 -0.7053
vn -0.7053 -0.5803 0.4072
vn 0.8144 -0.5803 -0.0000
vn 0.2973 -0.6443 -0.7046
vn -0.4616 -0.6443 -0.6098
vn -0.6098 -0.6443 -0.4616
vn 0.0948 -0.6443 -0.7588
vn -0.7046 -0.6443 0.2973
vn -0.0948 -0.6443 0.7588
vn 0.6098 -0.6443 0.4616
vn 0.7046 -0.6443 -0.2973
vn -0.7588 -0.6443 0.0948
vn -0.2973 -0.6443 0.7046
vn 0.4616 -0.6443 0.6098
vn 0.7588 -0.6443 -0.0948
vn -0.4072 -0.5803 -0.7053
vn -0.0000 0.9441 -0.3297
vn 0.7458 0.5082 -0.4306
vn -0.6746 0.7382 -0.0000
vn 0.3373 0.7382 0.5842
vn -0.9659 -0.0000 -0.2588
vn 0.3373 0.7382 -0.5842
vn -0.3373 0.7382 -0.5842
vn 0.9659 -0.0000 0.2588
vn -0.3373 0.7382 0.5842
vn -0.0000 0.5082 0.8612
vn 0.6746 0.7382 -0.0000
vn -0.1649 0.9441 -0.2855
vn -0.2855 0.9441 -0.1649
vn -0.3297 0.9441 -0.0000
vn -0.2855 0.9441 0.1649
vn -0.1648 0.9441 0.2855
vn -0.0000 0.9441 0.3297
vn 0.1649 0.9441 0.2855
vn 0.2855 0.9441 0.1649
vn 0.3297 0.9441 -0.0000
vn 0.2855 0.9441 -0.1649
vn 0.1648 0.9441 -0.2855
vn 0.9551 -0.2963 -0.0000
vn -0.8271 -0.2963 -0.4775
vn -0.0000 -0.2963 -0.9551
vn -0.4775 -0.2963 0.8271
vn 0.8271 -0.2963 0.4775
vn -0.4775 -0.2963 -0.8271
vn 0.4775 -0.2963 -0.8271
vn -0.8271 -0.2963 0.4775
vn 0.4775 -0.2963 0.8271
vn 0.8271 -0.2963 -0.4775
vn -0.9551 -0.2963 -0.0000
vn -0.0000 -0.2963 0.9551
vn -0.0000 0.2845 0.9587
vn 0.8302 0.2845 -0.4793
vn -0.8302 0.2845 0.4793
vn 0.8302 0.2845 0.4793
vn -0.0000 0.2845 -0.9587
vn -0.8302 0.2845 -0.4793
vn 0.9659 -0.0000 -0.2588
vn -0.7458 0.5082 0.4306
vn 0.7071 -0.0000 -0.7071
vn -0.9659 -0.0000 0.2588
vn 0.7458 0.5082 0.4306
vn -0.2588 -0.0000 -0.9659
vn -0.7071 -0.0000 -0.7071
vn -0.7458 0.5082 -0.4306
vn 0.2588 -0.0000 -0.9659
vn -0.2588 -0.0000 0.9659
vn -0.7071 -0.0000 0.7071
vn 0.7071 -0.0000 0.7071
vn -0.0000 0.5082 -0.8612
vn 0.2588 -0.0000 0.9659
vt 0.750000 0.250000
vt 0.750000 0.490000
vt 0.870000 0.457846
vt 0.666667 1.000000
vt 0.750000 1.000000
vt 0.750000 1.000000
vt 1.000000 0.749915
vt 1.000000 1.000000
vt 0.916667 1.000000
vt 0.916667 0.749915
vt 0.957846 0.370000
vt 0.500000 1.000000
vt 0.583333 1.000000
vt 0.583333 1.000000
vt 0.833333 1.000000
vt 0.833333 0.749915
vt 0.990000 0.250000
vt 0.333333 1.000000
vt 0.416667 1.000000
vt 0.333333 1.000000
vt 0.750000 0.749915
vt 0.957846 0.130000
vt 0.166667 1.000000
vt 0.250000 1.000000
vt 0.666667 0.749915
vt 0.870000 0.042154
vt 0.583333 0.749915
vt 0.750000 0.010000
vt 0.500000 0.749915
vt 0.630000 0.042154
vt 0.416667 0.749915
vt 0.542154 0.130000
vt 0.333333 0.749915
vt 0.510000 0.250000
vt 0.916667 1.000000
vt 0.250000 0.749915
vt 0.542154 0.370000
vt 0.083333 1.000000
vt 0.083333 1.000000
vt 0.166667 0.749915
vt 0.630000 0.457846
vt 0.000000 1.000000
vt 0.083333 0.749915
vt 0.000000 0.749915
vt 0.083333 0.500000
vt 0.083333 0.577629
vt 0.000000 0.577629
vt 0.000000 0.500000
vt 0.166667 0.500000
vt 0.166667 0.577629
vt 0.250000 0.500000
vt 0.250000 0.577629
vt 0.333333 0.500000
vt 0.333333 0.577629
vt 0.416667 0.500000
vt 0.416667 0.577629
vt 0.500000 0.500000
vt 0.500000 0.577629
vt 0.583333 0.500000
vt 0.583333 0.577629
vt 0.666667 0.500000
vt 0.666667 0.577629
vt 0.750000 0.500000
vt 0.750000 0.577629
vt 0.833333 0.500000
vt 0.833333 0.577629
vt 0.916667 0.500000
vt 0.916667 0.577629
vt 1.000000 0.500000
vt 1.000000 0.577629
vt 0.458333 1.000000
vt 0.833333 1.000000
vt 0.583333 1.000000
vt 0.416667 1.000000
vt 0.333333 1.000000
s 0
f 1/1/1 3/2/1 5/3/1
f 88/4/2 86/5/2 54/6/2 55/4/2
f 39/7/3 4/8/3 6/9/3 40/10/3
f 1/1/1 5/3/1 7/11/1
f 90/12/4 87/13/4 56/14/4 57/12/4
f 40/10/5 6/9/5 8/15/5 41/16/5
f 1/1/1 7/11/1 9/17/1
f 92/18/6 89/19/6 58/19/6 59/20/6
f 41/16/7 8/15/7 10/6/7 42/21/7
f 1/1/1 9/17/1 11/22/1
f 93/23/8 91/24/8 60/24/8 61/23/8
f 42/21/9 10/6/9 12/4/9 43/25/9
f 1/1/1 11/22/1 13/26/1
f 86/5/10 96/15/10 53/15/10 54/6/10
f 43/25/11 12/4/11 14/14/11 44/27/11
f 1/1/1 13/26/1 15/28/1
f 87/13/12 88/4/12 55/4/12 56/14/12
f 44/27/13 14/14/13 16/12/13 45/29/13
f 1/1/1 15/28/1 17/30/1
f 89/19/14 90/12/14 57/12/14 58/19/14
f 45/29/15 16/12/15 18/19/15 46/31/15
f 1/1/1 17/30/1 19/32/1
f 91/24/16 92/18/16 59/20/16 60/24/16
f 46/31/17 18/19/17 20/20/17 47/33/17
f 1/1/1 19/32/1 21/34/1
f 97/35/18 94/8/18 51/8/18 52/9/18
f 47/33/19 20/20/19 22/24/19 48/36/19
f 1/1/1 21/34/1 23/37/1
f 95/38/20 93/23/20 61/23/20 62/39/20
f 48/36/21 22/24/21 24/23/21 49/40/21
f 1/1/1 23/37/1 25/41/1
f 94/42/22 95/38/22 62/39/22 51/42/22
f 49/40/23 24/23/23 26/39/23 50/43/23
f 1/1/1 25/41/1 3/2/1
f 96/15/24 97/35/24 52/9/24 53/15/24
f 50/43/25 26/39/25 4/42/25 39/44/25
f 25/45/26 38/46/26 27/47/26 3/48/26
f 23/49/27 37/50/27 38/46/27 25/45/27
f 21/51/28 36/52/28 37/50/28 23/49/28
f 19/53/29 35/54/29 36/52/29 21/51/29
f 17/55/30 34/56/30 35/54/30 19/53/30
f 15/57/31 33/58/31 34/56/31 17/55/31
f 13/59/32 32/60/32 33/58/32 15/57/32
f 11/61/33 31/62/33 32/60/33 13/59/33
f 9/63/34 30/64/34 31/62/34 11/61/34
f 7/65/35 29/66/35 30/64/35 9/63/35
f 5/67/36 28/68/36 29/66/36 7/65/36
f 3/69/37 27/70/37 28/68/37 5/67/37
f 38/46/38 50/43/38 39/44/38 27/47/38
f 37/50/39 49/40/39 50/43/39 38/46/39
f 36/52/40 48/36/40 49/40/40 37/50/40
f 35/54/41 47/33/41 48/36/41 36/52/41
f 34/56/42 46/31/42 47/33/42 35/54/42
f 33/58/43 45/29/43 46/31/43 34/56/43
f 32/60/44 44/27/44 45/29/44 33/58/44
f 31/62/45 43/25/45 44/27/45 32/60/45
f 30/64/46 42/21/46 43/25/46 31/62/46
f 29/66/47 41/16/47 42/21/47 30/64/47
f 28/68/48 40/10/48 41/16/48 29/66/48
f 27/70/49 39/7/49 40/10/49 28/68/49
f 55/4/50 54/6/50 65/6/50 66/4/50
f 60/24/51 59/20/51 70/20/51 71/24/51
f 53/15/52 52/9/52 63/9/52 64/15/52
f 58/19/53 57/12/53 68/12/53 69/19/53
f 56/14/54 55/4/54 66/4/54 67/14/54
f 61/23/55 60/24/55 71/24/55 72/23/55
f 54/6/56 53/15/56 64/15/56 65/6/56
f 51/42/57 62/39/57 73/39/57 2/42/57
f 59/20/58 58/19/58 69/19/58 70/20/58
f 52/9/59 51/8/59 2/8/59 63/9/59
f 57/12/60 56/14/60 67/14/60 68/12/60
f 62/39/61 61/23/61 72/23/61 73/39/61
f 74/8/62 75/9/62 63/9/62 2/8/62
f 84/23/63 85/39/63 73/39/63 72/23/63
f 79/14/64 80/12/64 68/12/64 67/14/64
f 81/19/65 82/20/65 70/20/65 69/19/65
f 76/15/66 77/6/66 65/6/66 64/15/66
f 83/24/67 84/23/67 72/23/67 71/24/67
f 78/4/68 79/14/68 67/14/68 66/4/68
f 80/12/69 81/19/69 69/19/69 68/12/69
f 75/9/70 76/15/70 64/15/70 63/9/70
f 82/20/71 83/24/71 71/24/71 70/20/71
f 77/6/72 78/4/72 66/4/72 65/6/72
f 8/15/73 6/9/73 97/35/73 96/15/73
f 4/42/74 26/39/74 95/38/74 94/42/74
f 26/39/75 24/23/75 93/23/75 95/38/75
f 6/9/76 4/8/76 94/8/76 97/35/76
f 22/24/77 20/20/77 92/18/77 91/24/77
f 18/19/78 16/12/78 90/12/78 89/19/78
f 14/14/79 12/4/79 88/4/79 87/13/79
f 10/6/80 8/15/80 96/15/80 86/5/80
f 24/23/81 22/24/81 91/24/81 93/23/81
f 20/20/82 18/19/82 89/19/82 92/18/82
f 16/12/83 14/14/83 87/13/83 90/12/83
f 12/4/84 10/6/84 86/5/84 88/4/84
f 85/39/85 74/42/85 2/42/85 73/39/85
f 98/9/86 99/42/86 110/71/86
f 106/20/87 107/24/87 136/24/87 137/20/87
f 120/23/88 112/24/88 107/24/88 108/23/88
f 122/5/35 113/72/35 141/72/35 129/5/35
f 111/12/89 114/73/89 103/14/89 104/12/89
f 105/19/90 116/74/90 123/74/90 124/19/90
f 113/72/91 117/35/91 98/9/91 100/15/91
f 118/42/92 119/39/92 109/39/92 99/42/92
f 98/9/93 117/35/93 144/35/93 131/9/93
f 115/75/94 116/74/94 105/19/94 106/20/94
f 99/42/95 98/9/95 131/9/95 126/42/95
f 119/39/27 120/23/27 127/23/27 145/39/27
f 121/4/96 122/5/96 101/6/96 102/4/96
f 99/42/97 109/39/97 110/71/97
f 109/39/98 108/23/98 110/71/98
f 108/23/99 107/24/99 110/71/99
f 107/24/100 106/20/100 110/71/100
f 106/20/101 105/19/101 110/71/101
f 105/19/102 104/12/102 110/71/102
f 104/12/103 103/14/103 110/71/103
f 103/14/104 102/4/104 110/71/104
f 102/4/105 101/6/105 110/71/105
f 101/6/106 100/15/106 110/71/106
f 100/15/107 98/9/107 110/71/107
f 78/4/108 77/6/108 122/5/108 121/4/108
f 85/39/109 84/23/109 120/23/109 119/39/109
f 75/9/110 74/8/110 118/8/110 117/35/110
f 82/20/111 81/19/111 116/74/111 115/75/111
f 79/14/112 78/4/112 121/4/112 114/73/112
f 74/42/113 85/39/113 119/39/113 118/42/113
f 76/15/114 75/9/114 117/35/114 113/72/114
f 83/24/115 82/20/115 115/75/115 112/24/115
f 80/12/116 79/14/116 114/73/116 111/12/116
f 77/6/117 76/15/117 113/72/117 122/5/117
f 84/23/118 83/24/118 112/24/118 120/23/118
f 81/19/119 80/12/119 111/12/119 116/74/119
f 123/74/120 139/12/120 135/12/120 124/19/120
f 129/5/121 141/72/121 132/15/121 130/6/121
f 140/24/122 143/75/122 137/20/122 136/24/122
f 142/73/123 146/4/123 134/4/123 133/14/123
f 144/35/124 125/8/124 126/8/124 131/9/124
f 145/39/125 127/23/125 128/23/125 138/39/125
f 117/35/37 118/8/37 125/8/37 144/35/37
f 111/12/126 104/12/126 135/12/126 139/12/126
f 100/15/127 101/6/127 130/6/127 132/15/127
f 109/39/128 119/39/128 145/39/128 138/39/128
f 118/42/129 99/42/129 126/42/129 125/42/129
f 116/74/31 111/12/31 139/12/31 123/74/31
f 108/23/130 109/39/130 138/39/130 128/23/130
f 107/24/131 112/24/131 140/24/131 136/24/131
f 114/73/33 121/4/33 146/4/33 142/73/33
f 113/72/132 100/15/132 132/15/132 141/72/132
f 102/4/133 103/14/133 133/14/133 134/4/133
f 121/4/134 102/4/134 134/4/134 146/4/134
f 120/23/135 108/23/135 128/23/135 127/23/135
f 103/14/136 114/73/136 142/73/136 133/14/136
f 115/75/137 106/20/137 137/20/137 143/75/137
f 112/24/29 115/75/29 143/75/29 140/24/29
f 104/12/138 105/19/138 124/19/138 135/12/138
f 101/6/139 122/5/139 129/5/139 130/6/139
