# Blender 4.3.2
# www.blender.org
o rook
v 5.000000 -1.732887 0.000000
v 5.517638 -1.732887 -1.931852
v 6.414214 -1.732887 -1.414214
v 6.931852 -1.732887 -0.517638
v 6.931851 -1.732887 0.517638
v 6.414214 -1.732887 1.414214
v 5.517638 -1.732887 1.931852
v 4.482362 -1.732887 1.931852
v 3.585786 -1.732887 1.414214
v 3.068148 -1.732887 0.517638
v 3.068148 -1.732887 -0.517638
v 3.585786 -1.732887 -1.414213
v 4.482362 -1.732887 -1.931852
v 5.517638 -0.801337 -1.931852
v 6.414214 -0.801337 -1.414214
v 6.931852 -0.801337 -0.517638
v 6.931851 -0.801337 0.517638
v 6.414214 -0.801337 1.414214
v 5.517638 -0.801337 1.931852
v 4.482362 -0.801337 1.931852
v 3.585786 -0.801337 1.414214
v 3.068148 -0.801337 0.517638
v 3.068148 -0.801337 -0.517638
v 3.585786 -0.801337 -1.414214
v 4.482362 -0.801337 -1.931852
v 5.361487 0.080678 -1.349089
v 5.987602 0.080678 -0.987602
v 6.349090 0.080678 -0.361487
v 6.349089 0.080678 0.361487
v 5.987602 0.080678 0.987602
v 5.361487 0.080678 1.349090
v 4.638513 0.080678 1.349089
v 4.012398 0.080678 0.987602
v 3.650910 0.080678 0.361487
v 3.650911 0.080678 -0.361487
v 4.012398 0.080678 -0.987602
v 4.638513 0.080678 -1.349090
v 5.302440 2.187619 -1.128723
v 5.420445 2.600646 -1.569125
v 5.826282 2.187619 -0.826283
v 6.128723 2.187619 -0.302440
v 6.128722 2.187619 0.302440
v 5.826283 2.187619 0.826281
v 5.302440 2.187619 1.128722
v 4.697560 2.187619 1.128722
v 4.173718 2.187619 0.826282
v 3.871278 2.187619 0.302439
v 3.871278 2.187619 -0.302441
v 4.173717 2.187619 -0.826282
v 4.697560 2.187619 -1.128723
v 6.148679 2.600646 -1.148679
v 6.569124 2.600646 -0.420446
v 6.569124 2.600646 0.420445
v 6.148679 2.600646 1.148679
v 5.420446 2.600646 1.569124
v 4.579555 2.600646 1.569123
v 3.851321 2.600646 1.148678
v 3.430876 2.600646 0.420445
v 3.430876 2.600646 -0.420446
v 3.851321 2.600646 -1.148679
v 4.579554 2.600646 -1.569125
v 5.000000 3.898984 -0.000001
v 6.148679 3.569563 -1.148679
v 6.569125 3.569563 -0.420446
v 4.579555 3.569563 1.569123
v 3.851321 3.569563 1.148678
v 6.148679 3.569563 1.148679
v 5.420446 3.569563 1.569124
v 3.430876 3.569563 -0.420446
v 3.851321 3.569563 -1.148680
v 6.569124 3.569563 0.420445
v 5.420445 3.569563 -1.569125
v 4.579554 3.569563 -1.569125
v 3.430876 3.569563 0.420445
v 5.602894 3.999788 -0.602894
v 5.220675 3.999788 -0.823568
v 4.779325 3.999788 -0.823569
v 4.397107 3.999788 -0.602894
v 4.176433 3.999788 -0.220675
v 4.176432 3.999788 0.220674
v 4.397107 3.999788 0.602893
v 4.779326 3.999788 0.823567
v 5.220675 3.999788 0.823567
v 5.602893 3.999788 0.602893
v 5.823568 3.999788 0.220674
v 5.823568 3.999788 -0.220675
v 6.148679 4.876837 -1.148679
v 6.569125 4.876837 -0.420447
v 3.430876 4.876837 -0.420446
v 3.851321 4.876837 -1.148680
v 5.420445 4.876837 -1.569125
v 4.579554 4.876837 -1.569125
v 3.851321 4.876837 1.148678
v 3.430876 4.876837 0.420445
v 5.420446 4.876837 1.569124
v 4.579555 4.876837 1.569123
v 6.569124 4.876837 0.420445
v 6.148679 4.876837 1.148678
v 5.736177 4.984066 -0.736177
v 5.269459 4.984066 -1.005636
v 4.730541 4.984066 -1.005637
v 4.263824 4.984066 -0.736178
v 3.994365 4.984066 -0.269460
v 3.994364 4.984066 0.269459
v 4.263824 4.984066 0.736176
v 4.730541 4.984066 1.005635
v 5.269460 4.984066 1.005635
v 5.736177 4.984066 0.736176
v 6.005636 4.984066 0.269459
v 6.005636 4.984066 -0.269460
vn -0.0000 -1.0000 -0.0000
vn -0.0000 0.1040 -0.9946
vn -0.4973 0.1040 -0.8613
vn -0.8613 0.1040 -0.4973
vn -0.9946 0.1040 -0.0000
vn -0.8613 0.1040 0.4973
vn -0.4973 0.1040 0.8613
vn -0.0000 0.1040 0.9946
vn 0.4973 0.1040 0.8613
vn 0.8613 0.1040 0.4973
vn 0.9946 0.1040 -0.0000
vn 0.8613 0.1040 -0.4973
vn 0.4973 0.1040 -0.8613
vn -0.0000 -0.0000 -1.0000
vn -0.5000 -0.0000 -0.8660
vn -0.8660 -0.0000 -0.5000
vn -1.0000 -0.0000 -0.0000
vn -0.8660 -0.0000 0.5000
vn -0.5000 -0.0000 0.8660
vn -0.0000 -0.0000 1.0000
vn 0.5000 -0.0000 0.8660
vn 0.8660 -0.0000 0.5000
vn 1.0000 -0.0000 -0.0000
vn 0.8660 -0.0000 -0.5000
vn 0.5000 -0.0000 -0.8660
vn -0.0000 0.5513 -0.8343
vn -0.4172 0.5513 -0.7226
vn -0.7226 0.5513 -0.4172
vn -0.8343 0.5513 -0.0000
vn -0.7226 0.5513 0.4172
vn -0.4172 0.5513 0.7226
vn -0.0000 0.5513 0.8343
vn 0.4172 0.5513 0.7226
vn 0.7226 0.5513 0.4172
vn 0.8343 0.5513 -0.0000
vn 0.7226 0.5513 -0.4172
vn 0.4172 0.5513 -0.7226
vn 0.5924 -0.7294 -0.3420
vn -0.3420 -0.7294 0.5924
vn 0.3420 -0.7294 0.5924
vn -0.5924 -0.7294 -0.3420
vn 0.6841 -0.7294 -0.0000
vn -0.0000 -0.7294 -0.6841
vn -0.5924 -0.7294 0.3420
vn 0.3420 -0.7294 -0.5924
vn -0.0000 -0.7294 0.6841
vn -0.3420 -0.7294 -0.5924
vn 0.5924 -0.7294 0.3420
vn -0.6841 -0.7294 -0.0000
vn 0.1134 0.9931 0.0304
vn 0.1134 0.9931 -0.0304
vn -0.0000 1.0000 -0.0000
vn -0.1134 0.9931 0.0304
vn -0.0830 0.9931 0.0830
vn 0.0830 0.9931 0.0830
vn 0.0304 0.9931 0.1134
vn -0.0830 0.9931 -0.0830
vn -0.1134 0.9931 -0.0304
vn -0.0304 0.9931 0.1134
vn -0.0304 0.9931 -0.1134
vn -0.9659 -0.0000 0.2588
vn 0.4998 0.8661 -0.0000
vn -0.7071 -0.0000 0.7071
vn 0.2499 0.8661 0.4328
vn -0.2499 0.8661 0.4328
vn -0.0000 0.1819 -0.9833
vn -0.4998 0.8661 -0.0000
vn 0.9659 -0.0000 0.2588
vn -0.2499 0.8661 -0.4328
vn 0.9659 -0.0000 -0.2588
vn 0.2499 0.8661 -0.4328
vn 0.0830 0.9931 -0.0830
vn 0.0304 0.9931 -0.1134
vn 0.1619 0.9824 -0.0935
vn 0.1619 0.9824 0.0935
vn -0.0000 0.9824 0.1869
vn -0.1619 0.9824 0.0935
vn -0.1619 0.9824 -0.0935
vn -0.0000 0.9824 -0.1869
vn 0.2588 -0.0000 -0.9659
vn 0.7071 -0.0000 -0.7071
vn 0.8516 0.1819 -0.4917
vn 0.2588 -0.0000 0.9659
vn -0.2588 -0.0000 0.9659
vn -0.8516 0.1819 0.4917
vn -0.2588 -0.0000 -0.9659
vn 0.8516 0.1819 0.4917
vn 0.7071 -0.0000 0.7071
vn -0.8516 0.1819 -0.4917
vn -0.9659 -0.0000 -0.2588
vn -0.0000 0.1819 0.9833
vn -0.7071 -0.0000 -0.7071
vt 0.750000 0.250000
vt 0.750000 0.490000
vt 0.870000 0.457846
vt 0.083333 1.000000
vt 0.000000 1.000000
vt 0.000000 0.749915
vt 0.083333 0.749915
vt 0.957846 0.370000
vt 0.166667 1.000000
vt 0.166667 0.749915
vt 0.990000 0.250000
vt 0.250000 1.000000
vt 0.250000 0.749915
vt 0.957846 0.130000
vt 0.333333 1.000000
vt 0.333333 0.749915
vt 0.870000 0.042154
vt 0.416667 1.000000
vt 0.416667 0.749915
vt 0.750000 0.010000
vt 0.500000 1.000000
vt 0.500000 0.749915
vt 0.630000 0.042154
vt 0.583333 1.000000
vt 0.583333 0.749915
vt 0.542154 0.130000
vt 0.666667 1.000000
vt 0.666667 0.749915
vt 0.510000 0.250000
vt 0.750000 1.000000
vt 0.750000 0.749915
vt 0.542154 0.370000
vt 0.833333 1.000000
vt 0.833333 0.749915
vt 0.630000 0.457846
vt 0.916667 1.000000
vt 0.916667 0.749915
vt 1.000000 1.000000
vt 1.000000 0.749915
vt 0.083333 0.500000
vt 0.083333 0.577629
vt 0.000000 0.577629
vt 0.000000 0.500000
vt 0.166667 0.500000
vt 0.166667 0.577629
vt 0.250000 0.500000
vt 0.250000 0.577629
vt 0.333333 0.500000
vt 0.333333 0.577629
vt 0.416667 0.500000
vt 0.416667 0.577629
vt 0.500000 0.500000
vt 0.500000 0.577629
vt 0.583333 0.500000
vt 0.583333 0.577629
vt 0.666667 0.500000
vt 0.666667 0.577629
vt 0.750000 0.500000
vt 0.750000 0.577629
vt 0.833333 0.500000
vt 0.833333 0.577629
vt 0.916667 0.500000
vt 0.916667 0.577629
vt 1.000000 0.500000
vt 1.000000 0.577629
vt 0.395833 1.000000
vt 0.437500 1.000000
vt 0.541667 1.000000
vt 0.687500 1.000000
vt 0.729167 1.000000
vt 0.354167 1.000000
vt 0.312500 1.000000
vt 0.604167 1.000000
vt 0.645833 1.000000
vt 0.770833 1.000000
vt 0.562500 1.000000
vt 0.520833 1.000000
vt 0.479167 1.000000
s 1
f 1/1/1 2/2/1 3/3/1
f 50/4/2 38/5/2 26/6/2 37/7/2
f 1/1/1 3/3/1 4/8/1
f 49/9/3 50/4/3 37/7/3 36/10/3
f 1/1/1 4/8/1 5/11/1
f 48/12/4 49/9/4 36/10/4 35/13/4
f 1/1/1 5/11/1 6/14/1
f 47/15/5 48/12/5 35/13/5 34/16/5
f 1/1/1 6/14/1 7/17/1
f 46/18/6 47/15/6 34/16/6 33/19/6
f 1/1/1 7/17/1 8/20/1
f 45/21/7 46/18/7 33/19/7 32/22/7
f 1/1/1 8/20/1 9/23/1
f 44/24/8 45/21/8 32/22/8 31/25/8
f 1/1/1 9/23/1 10/26/1
f 43/27/9 44/24/9 31/25/9 30/28/9
f 1/1/1 10/26/1 11/29/1
f 42/30/10 43/27/10 30/28/10 29/31/10
f 1/1/1 11/29/1 12/32/1
f 41/33/11 42/30/11 29/31/11 28/34/11
f 1/1/1 12/32/1 13/35/1
f 40/36/12 41/33/12 28/34/12 27/37/12
f 1/1/1 13/35/1 2/2/1
f 38/38/13 40/36/13 27/37/13 26/39/13
f 13/40/14 25/41/14 14/42/14 2/43/14
f 12/44/15 24/45/15 25/41/15 13/40/15
f 11/46/16 23/47/16 24/45/16 12/44/16
f 10/48/17 22/49/17 23/47/17 11/46/17
f 9/50/18 21/51/18 22/49/18 10/48/18
f 8/52/19 20/53/19 21/51/19 9/50/19
f 7/54/20 19/55/20 20/53/20 8/52/20
f 6/56/21 18/57/21 19/55/21 7/54/21
f 5/58/22 17/59/22 18/57/22 6/56/22
f 4/60/23 16/61/23 17/59/23 5/58/23
f 3/62/24 15/63/24 16/61/24 4/60/24
f 2/64/25 14/65/25 15/63/25 3/62/25
f 25/41/26 37/7/26 26/6/26 14/42/26
f 24/45/27 36/10/27 37/7/27 25/41/27
f 23/47/28 35/13/28 36/10/28 24/45/28
f 22/49/29 34/16/29 35/13/29 23/47/29
f 21/51/30 33/19/30 34/16/30 22/49/30
f 20/53/31 32/22/31 33/19/31 21/51/31
f 19/55/32 31/25/32 32/22/32 20/53/32
f 18/57/33 30/28/33 31/25/33 19/55/33
f 17/59/34 29/31/34 30/28/34 18/57/34
f 16/61/35 28/34/35 29/31/35 17/59/35
f 15/63/36 27/37/36 28/34/36 16/61/36
f 14/65/37 26/39/37 27/37/37 15/63/37
f 41/33/38 40/36/38 51/36/38 52/33/38
f 46/18/39 45/21/39 56/21/39 57/18/39
f 44/24/40 43/27/40 54/27/40 55/24/40
f 49/9/41 48/12/41 59/12/41 60/9/41
f 42/30/42 41/33/42 52/33/42 53/30/42
f 38/5/43 50/4/43 61/4/43 39/5/43
f 47/15/44 46/18/44 57/18/44 58/15/44
f 40/36/45 38/38/45 39/38/45 51/36/45
f 45/21/46 44/24/46 55/24/46 56/21/46
f 50/4/47 49/9/47 60/9/47 61/4/47
f 43/27/48 42/30/48 53/30/48 54/27/48
f 48/12/49 47/15/49 58/15/49 59/12/49
f 79/66/50 80/67/51 62/68/52
f 86/69/53 75/70/54 62/68/52
f 52/33/24 51/36/24 63/36/24 64/33/24
f 39/5/14 61/4/14 73/4/14 72/5/14
f 78/71/55 79/66/50 62/68/52
f 59/12/17 58/15/17 74/15/17 69/12/17
f 55/24/21 54/27/21 67/27/21 68/24/21
f 77/72/56 78/71/55 62/68/52
f 54/27/22 53/30/22 71/30/22 67/27/22
f 84/73/57 85/74/58 62/68/52
f 76/75/59 77/72/56 62/68/52
f 61/4/15 60/9/15 70/9/15 73/4/15
f 83/76/60 84/73/57 62/68/52
f 73/4/61 77/72/61 101/72/61 92/4/61
f 71/30/62 64/33/62 86/69/62 85/74/62
f 84/73/63 67/27/63 98/27/63 108/73/63
f 68/24/64 67/27/64 84/73/64 83/76/64
f 74/15/18 66/18/18 93/18/18 94/15/18
f 66/18/65 65/21/65 82/77/65 81/78/65
f 83/76/66 82/77/66 106/77/66 107/76/66
f 69/12/67 74/15/67 80/67/67 79/66/67
f 76/75/68 72/38/68 91/38/68 100/75/68
f 73/4/69 70/9/69 78/71/69 77/72/69
f 68/24/70 83/76/70 107/76/70 95/24/70
f 63/36/71 72/38/71 76/75/71 75/70/71
f 80/67/51 81/78/72 62/68/52
f 58/15/18 57/18/18 66/18/18 74/15/18
f 60/9/16 59/12/16 69/12/16 70/9/16
f 85/74/58 86/69/53 62/68/52
f 81/78/72 82/77/73 62/68/52
f 51/36/25 39/38/25 72/38/25 63/36/25
f 57/18/19 56/21/19 65/21/19 66/18/19
f 82/77/73 83/76/60 62/68/52
f 56/21/20 55/24/20 68/24/20 65/21/20
f 75/70/54 76/75/59 62/68/52
f 53/30/23 52/33/23 64/33/23 71/30/23
f 88/33/74 87/36/74 99/70/74 110/69/74
f 98/27/75 97/30/75 109/74/75 108/73/75
f 96/21/76 95/24/76 107/76/76 106/77/76
f 94/15/77 93/18/77 105/78/77 104/67/77
f 90/9/78 89/12/78 103/66/78 102/71/78
f 91/38/79 92/4/79 101/72/79 100/75/79
f 71/30/80 85/74/80 109/74/80 97/30/80
f 64/33/24 63/36/24 87/36/24 88/33/24
f 78/71/81 70/9/81 90/9/81 102/71/81
f 81/78/82 80/67/82 104/67/82 105/78/82
f 65/21/20 68/24/20 95/24/20 96/21/20
f 86/69/83 64/33/83 88/33/83 110/69/83
f 69/12/84 79/66/84 103/66/84 89/12/84
f 75/70/85 86/69/85 110/69/85 99/70/85
f 80/67/86 74/15/86 94/15/86 104/67/86
f 79/66/87 78/71/87 102/71/87 103/66/87
f 67/27/22 71/30/22 97/30/22 98/27/22
f 70/9/16 69/12/16 89/12/16 90/9/16
f 66/18/88 81/78/88 105/78/88 93/18/88
f 85/74/89 84/73/89 108/73/89 109/74/89
f 82/77/90 65/21/90 96/21/90 106/77/90
f 77/72/91 76/75/91 100/75/91 101/72/91
f 63/36/92 75/70/92 99/70/92 87/36/92
f 72/5/14 73/4/14 92/4/14 91/5/14
